<svg width="100%" viewBox="270 30 180 160" xmlns="http://www.w3.org/2000/svg">

  <g transform="translate(270, 40)">

    <ellipse cx="50" cy="28" rx="34" ry="26" fill="white"/>
    <ellipse cx="22" cy="36" rx="18" ry="22" fill="white"/>
    <ellipse cx="78" cy="36" rx="18" ry="22" fill="white"/>

    <path d="M22 14 C10 14 4 24 4 36 C4 50 12 58 22 60 L10 62 L10 66 L90 66 L90 62 L78 60 C88 58 96 50 96 36 C96 24 90 14 78 14 C74 8 64 2 50 2 C36 2 26 8 22 14Z"
          fill="none" stroke="#F97316" stroke-width="3" stroke-linejoin="round"/>

    <rect x="8" y="52" width="84" height="14" rx="4" fill="white" stroke="#F97316" stroke-width="2.5"/>
    <line x1="18" y1="52" x2="18" y2="66" stroke="#F97316" stroke-width="2"/>
    <line x1="26" y1="52" x2="26" y2="66" stroke="#F97316" stroke-width="2"/>
    <line x1="34" y1="52" x2="34" y2="66" stroke="#F97316" stroke-width="2"/>
    <line x1="42" y1="52" x2="42" y2="66" stroke="#F97316" stroke-width="2"/>
    <line x1="50" y1="52" x2="50" y2="66" stroke="#F97316" stroke-width="2"/>
    <line x1="58" y1="52" x2="58" y2="66" stroke="#F97316" stroke-width="2"/>
    <line x1="66" y1="52" x2="66" y2="66" stroke="#F97316" stroke-width="2"/>
    <line x1="74" y1="52" x2="74" y2="66" stroke="#F97316" stroke-width="2"/>
    <line x1="82" y1="52" x2="82" y2="66" stroke="#F97316" stroke-width="2"/>

    <rect x="10" y="64" width="80" height="82" rx="16" fill="#F97316"/>

    <ellipse cx="34" cy="94" rx="9" ry="14" fill="white"/>
    <ellipse cx="66" cy="94" rx="9" ry="14" fill="white"/>

    <path d="M33 118 Q50 130 67 118" stroke="white" stroke-width="3" fill="none" stroke-linecap="round"/>

    <g transform="translate(104, 95) rotate(30)">
      <rect x="-4" y="0" width="8" height="60" rx="4" fill="#C8860A"/>
      <ellipse cx="0" cy="-10" rx="12" ry="16" fill="#C8860A"/>
      <ellipse cx="0" cy="-10" rx="8" ry="11" fill="#DFA030"/>
      <line x1="-3" y1="10" x2="3" y2="10" stroke="#A06A00" stroke-width="1.5" stroke-linecap="round"/>
      <line x1="-3" y1="20" x2="3" y2="20" stroke="#A06A00" stroke-width="1.5" stroke-linecap="round"/>
      <line x1="-3" y1="30" x2="3" y2="30" stroke="#A06A00" stroke-width="1.5" stroke-linecap="round"/>
    </g>

  </g>

</svg>